<svg xmlns="http://www.w3.org/2000/svg" xmlns:xlink="http://www.w3.org/1999/xlink" viewBox="0 0 750 500" xmlns:v="https://vecta.io/nano"><style><![CDATA[.B{stroke-linejoin:round}.C{stroke:#263238}.D{fill:#fff}.E{fill:#263238}.F{fill:none}.G{stroke-linecap:round}.H{fill:#b809c3}.I{stroke:gray}]]></style><use xlink:href="#B" class="H"/><g class="D"><use xlink:href="#B" opacity=".7"/><g class="B C"><path d="M473.61 337.57H280.32L292.79 307h168.35l12.47 30.57z"/><path d="M302.96 313.79h-7.34l1.5-3.93h7.2l-1.36 3.93zm10.35 0h-7.33l1.31-3.93h7.2l-1.18 3.93zm10.36 0h-7.34l1.12-3.93h7.2l-.98 3.93zm10.35 0h-7.33l.93-3.93h7.2l-.8 3.93zm10.36 0h-7.33l.73-3.93h7.2l-.6 3.93zm10.36 0h-7.34l.55-3.93h7.2l-.41 3.93zm10.35 0h-7.33l.35-3.93h7.2l-.22 3.93zm10.36 0h-7.34l.17-3.93h7.2l-.03 3.93zm10.36 0h-7.34l-.03-3.93h7.2l.17 3.93zm10.35 0h-7.34l-.21-3.93h7.2l.35 3.93zm10.36 0h-7.34l-.41-3.93h7.2l.55 3.93zm10.35 0h-7.33l-.6-3.93h7.2l.73 3.93zm10.36 0h-7.34l-.79-3.93h7.2l.93 3.93zm10.35 0h-7.33l-.99-3.93h7.2l1.12 3.93zm10.36 0h-7.33l-1.18-3.93h7.2l1.31 3.93zm10.36 0h-7.34l-1.36-3.93h7.2l1.5 3.93zm-158.41 8.82h-7.63l1.62-4.26h7.5l-1.49 4.26zm10.79 0h-7.64l1.42-4.26h7.49l-1.27 4.26zm10.78 0h-7.64l1.22-4.26h7.49l-1.07 4.26zm10.79 0h-7.64l1.01-4.26h7.49l-.86 4.26zm10.78 0h-7.64l.8-4.26h7.5l-.66 4.26zm10.79 0h-7.64l.59-4.26h7.49l-.44 4.26zm10.78 0h-7.64l.39-4.26h7.49l-.24 4.26zm10.79 0h-7.64l.17-4.26h7.5l-.03 4.26zm10.78 0h-7.64l-.03-4.26h7.49l.18 4.26zm10.78 0h-7.63l-.24-4.26h7.49l.38 4.26zm10.79 0h-7.64l-.44-4.26h7.49l.59 4.26zm10.78 0h-7.64l-.65-4.26h7.5l.79 4.26zm10.79 0h-7.64l-.86-4.26h7.49l1.01 4.26zm10.78 0h-7.64l-1.06-4.26h7.49l1.21 4.26zm10.79 0h-7.64l-1.28-4.26h7.5l1.42 4.26zm10.78 0h-7.64l-1.48-4.26h7.49l1.63 4.26zm-165.09 9.58h-7.97l1.77-4.64h7.81l-1.61 4.64zm11.25 0h-7.97l1.54-4.64h7.81l-1.38 4.64zm11.25 0h-7.97l1.32-4.64h7.81l-1.16 4.64zm78.75 0h-75.47l1.09-4.64h73.96l.42 4.64zm11.25 0h-7.97l-.48-4.64h7.81l.64 4.64zm11.25 0h-7.97l-.71-4.64h7.81l.87 4.64zm11.25 0h-7.97l-.93-4.64h7.8l1.1 4.64zm11.25 0h-7.97l-1.16-4.64h7.81l1.32 4.64zm11.25 0h-7.97l-1.39-4.64h7.81l1.55 4.64zm11.25 0h-7.97l-1.61-4.64h7.81l1.77 4.64zm-185 5.38h193.16v2.65H280.32z"/></g></g><g class="F I B"><path d="M134.22 65.28H42.59l-1.21 14.79h92.84V65.28z"/><use xlink:href="#C"/><use xlink:href="#C" y="14.8"/><use xlink:href="#C" y="29.6"/><use xlink:href="#D"/><use xlink:href="#C" y="59.19"/><use xlink:href="#C" y="73.99"/><use xlink:href="#D" y="44.39"/><use xlink:href="#C" y="103.58"/><use xlink:href="#C" y="118.38"/><use xlink:href="#D" y="88.78"/><use xlink:href="#C" y="147.97"/><use xlink:href="#C" y="162.77"/><use xlink:href="#C" y="177.57"/><use xlink:href="#D" y="147.97"/><path d="M228.4 65.28h-91.62l-1.21 14.79h92.83V65.28z"/><use xlink:href="#E"/><use xlink:href="#E" y="14.8"/><use xlink:href="#E" y="29.6"/><use xlink:href="#F"/><use xlink:href="#E" y="59.19"/><use xlink:href="#E" y="73.99"/><use xlink:href="#F" y="44.39"/><use xlink:href="#E" y="103.58"/><use xlink:href="#E" y="118.38"/><use xlink:href="#F" y="88.78"/><use xlink:href="#E" y="147.97"/><use xlink:href="#E" y="162.77"/><use xlink:href="#E" y="177.57"/><use xlink:href="#F" y="147.97"/><path d="M39.24 53.82h193.75v11.16H39.24z"/><path d="M232.99 64.98v196.59M230.88 65.3v134.88" class="G"/></g><path d="M231.76 261.14h2.6v5.01h-2.6zm-2.35-62.04h2.6v5.01h-2.6z" class="E B I"/><g class="F B I"><path d="M577 65h118v140H577z"/><path d="M582.9 72h106.2v126H582.9z"/><path d="M611.56 106h48.89v58h-48.89z"/></g><path d="M118.93 446.49v-87.14h536.54l.71 92.12-15.33-3.06L641 383H135l.03 62.73-16.1.76z" fill="#e3e3e3"/><g class="B C"><path d="M119 452.31V351h537v103.79" class="F G"/><path d="M119.05 359.35h536.42v8.18H119.05z" class="E"/><path d="M135 451.31V383h506v72.79" class="F G"/><path d="M100.35 346.33h563.58v13.1H100.35z" fill="#ccc"/><path d="M663.93 346.28H100.35l42.27-58.7h479.04l42.27 58.7z" class="D"/><g class="F"><circle cx="426.11" cy="64.62" r="26.66" transform="matrix(.707107 -.707107 .707107 .707107 79.11 320.23)"/><path d="M442.65 68.49l-2.12 2.14-14.15 14.13-16.28-16.27a10 10 0 1 1 14.15-14.13l2.15 2.14 2.12-2.14a10 10 0 0 1 14.13 14.13z"/><circle cx="281.63" cy="64.62" r="26.66" transform="matrix(.388963 -.921253 .921253 .388963 112.55 298.94)"/><circle cx="281.63" cy="64.62" r="17.43" transform="matrix(.386711 -.922201 .922201 .386711 113.11 299.34)"/><path d="M271.57,70a11.41,11.41,0,0,0,19.91.37" class="G"/></g></g><g class="E"><use xlink:href="#G"/><path d="M287.31 61.4c0 2-.58 3.61-1.31 3.61s-1.31-1.62-1.31-3.61.59-3.6 1.31-3.6 1.31 1.61 1.31 3.6z"/></g><g class="B C F"><circle cx="498.34" cy="64.62" r="26.66" transform="matrix(.971466 -.237177 .237177 .971466 -1.11 120.04)"/><circle cx="498.34" cy="64.62" r="17.43" transform="matrix(.971301 -.237855 .237855 .971301 -1.07 120.41)"/><path d="M488.15,67.82c1.18,4.39,4.2,8.21,10.19,8.21,6.17,0,9.1-3.45,10.2-8.21Z"/></g><path d="M494.2 61.4c0 2-.59 3.61-1.31 3.61s-1.31-1.62-1.31-3.61.59-3.6 1.31-3.6 1.31 1.61 1.31 3.6zm9.8 0c0 2-.59 3.61-1.31 3.61s-1.31-1.62-1.31-3.61.58-3.6 1.31-3.6 1.31 1.61 1.31 3.6z" class="E"/><g class="B C F"><circle cx="353.87" cy="64.62" r="26.66" transform="matrix(.388963 -.921253 .921253 .388963 156.69 365.49)"/><circle cx="353.87" cy="64.62" r="17.43" transform="matrix(.386711 -.922201 .922201 .386711 157.4 365.96)"/><path d="M343.81,76a11.42,11.42,0,0,1,19.91-.38" class="G"/></g><g class="E"><use xlink:href="#G" x="72.24"/><path d="M359.55 61.4c0 2-.59 3.61-1.31 3.61s-1.31-1.62-1.31-3.61.59-3.6 1.31-3.6 1.31 1.61 1.31 3.6z"/><path d="M600.33,283l8.82,10.93a5.78,5.78,0,0,1-.94,8.18L587.83,318l-45-16,19.74-12.24a5.77,5.77,0,0,0,1.65-8.28L558.83,274Z" class="B C"/></g><path d="M504.33 122.59l184.5 29.91V305l-5.5 1.5-184.5-42.41v-140l5.5-1.5z" class="B C D"/><path d="M498.83 264.09l184.5 42.41V154l-184.5-29.91v140z" class="B C E"/><path d="M503.83 261.03l174.5 40.53v-144.5l-174.5-28.03v132z" class="B C H"/><g class="E B C"><path d="M414.2 294.78h-68.45l5.7-20.79V262.1h57.04v13.07l5.71 19.61z"/><path d="M275.5 124H483v140H275.5z"/></g><path d="M280.5 128H478v132H280.5z" class="B C D"/><path d="M160,283l-8.82,10.93a5.78,5.78,0,0,0,.95,8.18L172.5,318l45-16-19.74-12.24a5.77,5.77,0,0,1-1.64-8.28L201.5,274Z" class="B C E"/><path d="M256 122.59L71.5 152.5V305l5.5 1.5 184.5-42.41v-140l-5.5-1.5z" class="B C D"/><path d="M261.5 264.09L77 306.5V154l184.5-29.91v140z" class="B C E"/><path d="M256.5 261.03L82 301.56v-144.5l174.5-28.03v132z" class="B C H"/><ellipse cx="558.49" cy="187.42" rx="24.9" ry="30.28" transform="matrix(.740805 -.671721 .671721 .740805 18.87 423.75)" class="B C E"/><g class="D B C"><path d="M574 184.09L563.47 182a38.58 38.58 0 0 0 1.36-7.13c.39-4-1-4.86-4.08-5.48s0 2.73-1.56 5.73c-1.25 2.41-5 4.32-6.42 5v18.28l15.57 3.05c5.25.25 1.94-4.09 1.94-4.09 3.9 0 1.56-4.37 1.56-4.37 3.9.18 1.17-4 1.17-4 4.09-1.18.99-4.9.99-4.9zm-32.13 11.61l8.76 1.72V179.7l-8.76-1.71v17.71z"/><ellipse cx="624.25" cy="200.31" rx="24.9" ry="30.28" transform="matrix(.740805 -.671721 .671721 .740805 27.26 471.25)"/></g><path d="M608.75 203.64l10.52 2.06a39 39 0 0 0-1.37 7.13c-.39 4 1 4.86 4.09 5.47s0-2.72 1.56-5.73c1.24-2.4 5-4.31 6.42-5v-18.26l-15.57-3.06c-5.26-.25-1.95 4.1-1.95 4.1-3.89 0-1.55 4.37-1.55 4.37-3.9-.18-1.17 4.05-1.17 4.05-4.09 1.15-.98 4.87-.98 4.87zm32.12-11.61l-8.76-1.72v17.71l8.76 1.72v-17.71z" class="E B C"/><path d="M520.44 251.25l23.2-14.34 13.91 11.47 25.19-22.95 9.28 26.54 11.26-7.17 8.62 9.32 25.18-12.91L651 281.38l-130.56-30.13z" class="B C D"/><path d="M520.44 251.25l18.56-7.17 19.22 10.76 21.87-13.63 12.59 17.22 10.6-5.74 8.62 5.74 21.87-7.9L651 281.38l-130.56-30.13z" class="B C E"/><path d="M544.11 149.39l31.57 5.02m35.15 5.02l31.56 5.02" class="F G B C"/><path d="M299.4 144.13h48.06v7.66H299.4zm0 13.94h24.38v4.18H299.4z" class="D B C"/><circle cx="389.15" cy="174.59" r="14.18" class="B C E"/><path d="M398,176.65l-1.13,1.14-7.53,7.52-8.66-8.66a5.32,5.32,0,0,1,7.53-7.52l1.14,1.14,1.13-1.14a5.32,5.32,0,1,1,7.52,7.52Z" class="B C D"/><circle cx="314.36" cy="199.28" r="14.18" class="B C E"/><circle cx="314.36" cy="199.28" r="9.27" transform="matrix(.707107 -.707107 .707107 .707107 -48.84 280.66)" class="B C D"/><path d="M309,202.14a6.06,6.06,0,0,0,10.59.2" class="B C F G"/><g class="E"><ellipse cx="311.46" cy="197.56" rx=".7" ry="1.92"/><path d="M317.39 197.56c0 1.06-.32 1.92-.7 1.92s-.7-.86-.7-1.92.31-1.91.7-1.91.7.86.7 1.91z"/><circle cx="428.03" cy="150.88" r="14.18" transform="matrix(.334136 -.942525 .942525 .334136 142.81 503.9)" class="B C"/></g><circle cx="428.03" cy="150.88" r="9.27" transform="matrix(.987024 -.16057 .16057 .987024 -18.68 70.72)" class="B C D"/><path d="M422.61,152.58c.63,2.34,2.23,4.37,5.42,4.37s4.84-1.84,5.43-4.37Z" class="B C F"/><g class="E"><path d="M425.83 149.17c0 1.06-.31 1.92-.7 1.92s-.7-.86-.7-1.92.32-1.92.7-1.92.7.86.7 1.92zm5.23 0c0 1.06-.32 1.92-.7 1.92s-.7-.86-.7-1.92.31-1.92.7-1.92.7.86.7 1.92z"/><circle cx="352.11" cy="188.43" r="14.18" class="B C"/></g><circle cx="352.11" cy="188.43" r="9.27" transform="matrix(.371368 -.928486 .928486 .371368 46.41 445.39)" class="B C D"/><path d="M346.75,194.5a6.07,6.07,0,0,1,10.6-.2" class="B C F G"/><g class="E"><path d="M349.9 186.71c0 1.06-.31 1.92-.7 1.92s-.69-.86-.69-1.92.31-1.91.69-1.91.7.86.7 1.91z"/><ellipse cx="354.43" cy="186.71" rx=".7" ry="1.92"/></g><path d="M300.8 216.58h25.58v13.93H300.8zm38.37-10.59h25.58v24.52h-25.58zm38.37-13.93h25.58v38.45h-25.58zm38.38-22.85h25.58v61.3h-25.58z" class="B C H"/><g class="D B C"><circle cx="457.65" cy="176.31" r="9.8" transform="matrix(.707107 -.707107 .707107 .707107 9.37 375.24)"/><path d="M463.18 174h-3.75a16.23 16.23 0 0 0 .48-2.64c.14-1.46-.35-1.67-1.46-1.67s0 1-.55 2.16a7.17 7.17 0 0 1-2.3 2.23v6.52h5.56c1.88-.27.7-1.59.7-1.59 1.39-.28.55-1.67.55-1.67 1.39-.21.42-1.53.42-1.53a1 1 0 0 0 .35-1.81zm-11.47.1h3.13v6.32h-3.13z"/><circle cx="457.65" cy="219.25" r="9.8" transform="matrix(.707107 -.707107 .707107 .707107 -20.99 387.82)"/><path d="M452.12 221.53h3.75a15.59 15.59 0 0 0-.49 2.64c-.14 1.46.35 1.67 1.46 1.67s0-1 .56-2.16a7.15 7.15 0 0 1 2.29-2.23v-6.52h-5.56c-1.87.27-.69 1.59-.69 1.59-1.39.28-.56 1.67-.56 1.67-1.39.21-.42 1.53-.42 1.53a1 1 0 0 0-.34 1.81zm11.46-.07h-3.13v-6.32h3.13zm-255.24-38.15l-103.76 20.47c-2.75.54-5-.9-5-3.22V182c0-2.33 2.24-4.62 5-5.13l103.76-19c2.47-.45 4.46 1 4.46 3.15v17.54c0 2.09-1.99 4.26-4.46 4.75z"/><path d="M125.2 186.14c0-4.65-4.44-7.6-9.94-6.57s-10.05 5.67-10.05 10.37 4.51 7.64 10.05 6.56 9.94-5.71 9.94-10.36z"/></g><path d="M135.04 180.15l43.07-8.1m-43.07 11.82l43.07-8.18m-43.07 12.84l64.14-12.35" class="F G B C"/><g class="D B C"><path d="M208.34 258.85l-103.76 24.71c-2.75.66-5-.69-5-3v-18.62c0-2.33 2.24-4.72 5-5.33l103.76-23.28c2.47-.55 4.46.78 4.46 3v17.53c0 2.14-1.99 4.41-4.46 4.99z"/><path d="M125.2 265.08c0-4.65-4.44-7.41-9.94-6.16s-10.05 6.08-10.05 10.78 4.51 7.45 10.05 6.15 9.94-6.11 9.94-10.77z"/></g><path d="M135.04 258.69l43.07-9.86m-43.07 13.58l43.07-9.94m-43.07 14.6l64.14-14.97" class="F G B C"/><path d="M218.14 161.6c0-4.83-4.38-7.94-9.82-6.95s-9.92 5.75-9.92 10.63 4.46 8 9.92 6.93 9.82-5.79 9.82-10.61z" class="B C H"/><g class="D B C"><path d="M214.43 163.56l-.78.85-5.23 5.64-6-4.23c-1.45-1-1.45-3.12 0-4.68a4.87 4.87 0 0 1 2.64-1.45 3.48 3.48 0 0 1 2.62.48l.79.56.79-.85a4.77 4.77 0 0 1 2.61-1.44 3.38 3.38 0 0 1 2.6.48c1.4 1.01 1.4 3.08-.04 4.64zm19.08 51.03l-100.88 21.9c-2.67.58-4.85-.8-4.85-3.09v-18.35c0-2.29 2.18-4.59 4.85-5.13l100.88-20.51c2.39-.49 4.33.87 4.33 3v17.29a5.45 5.45 0 0 1-4.33 4.89z"/><path d="M152.66 218.76c0-4.58-4.31-7.41-9.66-6.31s-9.76 5.76-9.76 10.39 4.39 7.45 9.76 6.3 9.66-5.79 9.66-10.38z"/></g><path d="M162.23 212.69l41.87-8.71m-41.87 12.38l41.87-8.79m-41.87 13.38l62.36-13.24" class="F G B C"/><path d="M241.87 192.94c0-4.76-4.27-7.76-9.56-6.69s-9.67 5.85-9.67 10.66 4.34 7.8 9.67 6.68 9.56-5.88 9.56-10.65z" class="B C H"/><path d="M238.57 193.62c0-3.12-2.8-5.08-6.26-4.37s-6.31 3.83-6.31 7 2.83 5.09 6.31 4.36 6.26-3.87 6.26-6.99z" class="B C D"/><path d="M228.62,196.72c.43,1.34,1.52,2.36,3.69,1.91A4.41,4.41,0,0,0,236,195.2Z" class="B C F"/><path d="M230.81 194.18c0 .64-.21 1.21-.47 1.27s-.47-.43-.47-1.08.21-1.22.47-1.27.47.43.47 1.08zm3.55-.73c0 .64-.22 1.21-.48 1.27s-.47-.43-.47-1.08.21-1.21.47-1.27.48.43.48 1.08z" class="E"/><g class="B C"><path d="M219 233.69c0-4.82-4.38-7.76-9.81-6.56s-9.91 6.14-9.91 11 4.45 7.8 9.91 6.54 9.81-6.15 9.81-10.98z" class="H"/><path d="M215.62 234.46c0-3.16-2.87-5.08-6.43-4.29s-6.47 4-6.47 7.2 2.91 5.1 6.47 4.28 6.43-4.03 6.43-7.19z" class="D"/><path d="M205.47,240.52a5.76,5.76,0,0,1,3.72-2.84,3.5,3.5,0,0,1,3.64,1" class="F G"/></g><path d="M207.66 235.19c0 .66-.22 1.24-.49 1.3s-.48-.42-.48-1.08.22-1.23.48-1.29.49.42.49 1.07zm3.63-.81c0 .65-.21 1.23-.48 1.29s-.48-.42-.48-1.08.21-1.23.48-1.29.48.42.48 1.08z" class="E"/><g class="B C"><path d="M350.76,268.46s-2.54-2.82-5.65-2.54-3.39,0-1.69,7.9,4.8,15,6.49,15a4,4,0,0,0,2.82-1.41l2.54,5.36h61s9-15.8,7.9-23.42-7.34-2.54-7.34-2.54Z" class="D"/><path d="M361.48,284s-6.77-4-9.88-10.72a28.53,28.53,0,0,1-2.82-12.14s-7.06-9-1.41-23.14,9.31-17.5,11.57-16.94l2.26.57s7.34-16.09,18.63-16.09,26.53,8.18,34.15,16.65,11.57,22,9.88,24.84a8.7,8.7,0,0,1-4.23,3.67s-.57,15-5.37,21.45a126.44,126.44,0,0,1-10.72,12.42L362.89,286Z" class="E"/><path d="M267 317.32s2-7 1-12-5.5-13.5-2.5-20 6.33-5.64 4.5-1.5c-1.19 2.7-.5 7-.5 7s4.5-6 6.5-6.5a18.78 18.78 0 0 1 5.5 0s1.5-2.5 3-2.5h5s5.5-6.5 8.5-5 9 8 7.5 11-5.5-1.5-5.5-1.5l-2-2.5s-2.5 5.5-3 9.5a18.16 18.16 0 0 0 0 6l2 1.5 9-3c3-1 6.5 2.5 4 4s-8.5 5-9.5 6.5-6 3-6 3l-3.5 1-7 13s-12-12-17-8z" class="D"/><path d="M289.5 281.82s-2.5 1.5-3.5 6m-4.5-3.5a19.59 19.59 0 0 0-4 4.5" class="F G"/><path d="M284 318.82s-5-6.5-11-7-9 1-10 3-4 4-4 4-15.5 10.5-23 18-16 14-15.5 21 15.5 9 20.5 6.5 13.5-11.5 17-17.5 26-28 26-28zm145.5-20.5s-18-13.5-31.5-18.5-30.5-2-40 3.5-23 14-23 14z" class="H"/><g class="D"><path d="M507.5 334.32s-2-7-1-12 5.5-13.5 2.5-20-6.6-5.51-4.5-1.5a9.32 9.32 0 0 1 .5 7s-4.5-6-6.5-6.5a18.78 18.78 0 0 0-5.5 0s-1.5-2.5-3-2.5h-5s-5.5-6.5-8.5-5-9 8-7.5 11 5.5-1.5 5.5-1.5l2-2.5s2.5 5.5 3 9.5a18.16 18.16 0 0 1 0 6l-2 1.5-9-3c-3-1-6.5 2.5-4 4s8.5 5 9.5 6.5 6 3 6 3l3.5 1 7 13s12-12 17-8z"/><path d="M485 298.82s2.5 1.5 3.5 6m4.5-3.5a19.59 19.59 0 0 1 4 4.5" class="G"/></g><g class="H"><path d="M494 336.32s1-2.5 5.5-4.5 10 0 10 0l3 6.5s-3 2.5 8.5 9.5 16 20.5 16 26.5-16.5-8-26.5-16-16.5-22-16.5-22z"/><path d="M432.5 298.82s-29.5-8-48-9-44 5.5-47.5 6-33 4.5-36 6-55 41.5-55 41.5-8 1.5-18 4.5-12 11-12 11 3 23 10 26 13 0 19-2.5 51.5-18 51.5-18l6.5 37.5h147.5l9-39.5s52 40 59.5 40.5 17.5-4.5 21.5-12-5.5-24-9-29-13.5-10.5-21-15.5-37.5-38.5-41.5-41.5-36.5-6-36.5-6z"/></g></g><path d="M460.53 329.87s15.47-19.87-3.74-20a51.55 51.55 0 0 0-31.73 10.62s-46.62-10.62-69.91-10.62S360.9 320.48 367 331s-27.46-10.52-41.38-12.65c-10.12-1.55-14.2 4-15.37 16.17l-18-11.91S252 364 247 366s-16-6-16 3 10 15.65 14 13.32S294 361 294 361l16 32 4.76 1.7.24 1.3 3.81.15L324 398v-1.66L446 401l10-40s41 22 49 29 16 4 19-1-63.47-59.13-63.47-59.13z" opacity=".2"/><g class="B C G"><g class="F"><path d="M399.73 317.91l4.27 2.41m-40-19.5s20.56 9.35 32.67 15.5m-7.17-6s14 6 20.5 11.5m56.19 17.43l-6.69 23.07 14-25"/><path d="M469.5 327.82l-1.66 5.73m-177.2 5.87l5.86 24.9-14-21.5"/><path d="M288.5 330.32l1.12 4.77m-59.87 16.59a42.6 42.6 0 0 1 16.25-8.36m-22.5 14.5a35.63 35.63 0 0 1 3.08-3.33"/></g><path d="M303.24,453.32l-11.93-59.91a5.51,5.51,0,0,1,5.41-6.59H459.78a5.51,5.51,0,0,1,5.41,6.59l-11.93,59.91" class="D"/><path d="M309.61 453.32l-12.11-66.5H459l-12.11 66.5" class="E"/></g><defs ><path id="B" d="M690.15 189.66C652.46 130.47 583.53 89.66 518 62 364-3 309 23 253 76s-84 91-140 138S7 276 36 353s39 93 146 73 184-50 272-23 133 54 205 11c74.73-44.63 72.89-158.78 31.15-224.34z"/><path id="C" d="M134.22 80.07H42.59l-1.21 14.8h92.84v-14.8z"/><path id="D" d="M134.22 124.47H42.59l-1.21 14.79h92.84v-14.79z"/><path id="E" d="M228.4 80.07h-91.62l-1.21 14.8h92.83v-14.8z"/><path id="F" d="M228.4 124.47h-91.62l-1.21 14.79h92.83v-14.79z"/><path id="G" d="M277.49 61.4c0 2-.59 3.61-1.31 3.61s-1.31-1.62-1.31-3.61.58-3.6 1.31-3.6 1.31 1.61 1.31 3.6z"/></defs></svg>